<mxfile host="app.diagrams.net" modified="2024-04-02T21:39:27.747Z" agent="Mozilla/5.0 (X11; Linux x86_64) AppleWebKit/537.36 (KHTML, like Gecko) Chrome/116.0.5845.1077 YaBrowser/23.9.1.1077 Yowser/2.5 Safari/537.36" etag="Wux50YGaY0hN9TtOq-wP" version="24.2.1" type="device">
  <diagram id="C5RBs43oDa-KdzZeNtuy" name="Page-1">
    <mxGraphModel dx="1386" dy="840" grid="1" gridSize="10" guides="1" tooltips="1" connect="1" arrows="1" fold="1" page="1" pageScale="1" pageWidth="827" pageHeight="1169" math="0" shadow="0">
      <root>
        <mxCell id="WIyWlLk6GJQsqaUBKTNV-0" />
        <mxCell id="WIyWlLk6GJQsqaUBKTNV-1" parent="WIyWlLk6GJQsqaUBKTNV-0" />
        <mxCell id="zkfFHV4jXpPFQw0GAbJ--0" value="Professor" style="swimlane;fontStyle=2;align=center;verticalAlign=top;childLayout=stackLayout;horizontal=1;startSize=26;horizontalStack=0;resizeParent=1;resizeLast=0;collapsible=1;marginBottom=0;rounded=0;shadow=0;strokeWidth=1;" parent="WIyWlLk6GJQsqaUBKTNV-1" vertex="1">
          <mxGeometry x="90" y="540" width="160" height="264" as="geometry">
            <mxRectangle x="230" y="140" width="160" height="26" as="alternateBounds" />
          </mxGeometry>
        </mxCell>
        <mxCell id="zkfFHV4jXpPFQw0GAbJ--1" value="-Name: string" style="text;align=left;verticalAlign=top;spacingLeft=4;spacingRight=4;overflow=hidden;rotatable=0;points=[[0,0.5],[1,0.5]];portConstraint=eastwest;" parent="zkfFHV4jXpPFQw0GAbJ--0" vertex="1">
          <mxGeometry y="26" width="160" height="26" as="geometry" />
        </mxCell>
        <mxCell id="zkfFHV4jXpPFQw0GAbJ--2" value="-ID" style="text;align=left;verticalAlign=top;spacingLeft=4;spacingRight=4;overflow=hidden;rotatable=0;points=[[0,0.5],[1,0.5]];portConstraint=eastwest;rounded=0;shadow=0;html=0;" parent="zkfFHV4jXpPFQw0GAbJ--0" vertex="1">
          <mxGeometry y="52" width="160" height="26" as="geometry" />
        </mxCell>
        <mxCell id="xgsYxusqr2s52Orevr7c-6" value="-Email Address: string" style="text;align=left;verticalAlign=top;spacingLeft=4;spacingRight=4;overflow=hidden;rotatable=0;points=[[0,0.5],[1,0.5]];portConstraint=eastwest;rounded=0;shadow=0;html=0;" vertex="1" parent="zkfFHV4jXpPFQw0GAbJ--0">
          <mxGeometry y="78" width="160" height="22" as="geometry" />
        </mxCell>
        <mxCell id="zkfFHV4jXpPFQw0GAbJ--3" value="-list of courses: list" style="text;align=left;verticalAlign=top;spacingLeft=4;spacingRight=4;overflow=hidden;rotatable=0;points=[[0,0.5],[1,0.5]];portConstraint=eastwest;rounded=0;shadow=0;html=0;" parent="zkfFHV4jXpPFQw0GAbJ--0" vertex="1">
          <mxGeometry y="100" width="160" height="30" as="geometry" />
        </mxCell>
        <mxCell id="xgsYxusqr2s52Orevr7c-7" value="-workload: float" style="text;align=left;verticalAlign=top;spacingLeft=4;spacingRight=4;overflow=hidden;rotatable=0;points=[[0,0.5],[1,0.5]];portConstraint=eastwest;rounded=0;shadow=0;html=0;" vertex="1" parent="zkfFHV4jXpPFQw0GAbJ--0">
          <mxGeometry y="130" width="160" height="30" as="geometry" />
        </mxCell>
        <mxCell id="xgsYxusqr2s52Orevr7c-19" value="-all couses:list" style="text;align=left;verticalAlign=top;spacingLeft=4;spacingRight=4;overflow=hidden;rotatable=0;points=[[0,0.5],[1,0.5]];portConstraint=eastwest;" vertex="1" parent="zkfFHV4jXpPFQw0GAbJ--0">
          <mxGeometry y="160" width="160" height="26" as="geometry" />
        </mxCell>
        <mxCell id="zkfFHV4jXpPFQw0GAbJ--4" value="" style="line;html=1;strokeWidth=1;align=left;verticalAlign=middle;spacingTop=-1;spacingLeft=3;spacingRight=3;rotatable=0;labelPosition=right;points=[];portConstraint=eastwest;" parent="zkfFHV4jXpPFQw0GAbJ--0" vertex="1">
          <mxGeometry y="186" width="160" height="8" as="geometry" />
        </mxCell>
        <mxCell id="zkfFHV4jXpPFQw0GAbJ--5" value="+AddLesson&#xa;+RemLesson" style="text;align=left;verticalAlign=top;spacingLeft=4;spacingRight=4;overflow=hidden;rotatable=0;points=[[0,0.5],[1,0.5]];portConstraint=eastwest;" parent="zkfFHV4jXpPFQw0GAbJ--0" vertex="1">
          <mxGeometry y="194" width="160" height="42" as="geometry" />
        </mxCell>
        <mxCell id="xgsYxusqr2s52Orevr7c-11" value="courses" style="swimlane;fontStyle=0;align=center;verticalAlign=top;childLayout=stackLayout;horizontal=1;startSize=26;horizontalStack=0;resizeParent=1;resizeLast=0;collapsible=1;marginBottom=0;rounded=0;shadow=0;strokeWidth=1;" vertex="1" parent="WIyWlLk6GJQsqaUBKTNV-1">
          <mxGeometry x="140" y="310" width="120" height="143" as="geometry">
            <mxRectangle x="550" y="140" width="160" height="26" as="alternateBounds" />
          </mxGeometry>
        </mxCell>
        <mxCell id="xgsYxusqr2s52Orevr7c-12" value="-ID course: int&#xa;-name:string&#xa;-cost: float&#xa;-Professors: string&#xa;-nmb of student:int" style="text;align=left;verticalAlign=top;spacingLeft=4;spacingRight=4;overflow=hidden;rotatable=0;points=[[0,0.5],[1,0.5]];portConstraint=eastwest;" vertex="1" parent="xgsYxusqr2s52Orevr7c-11">
          <mxGeometry y="26" width="120" height="74" as="geometry" />
        </mxCell>
        <mxCell id="xgsYxusqr2s52Orevr7c-13" value="" style="line;html=1;strokeWidth=1;align=left;verticalAlign=middle;spacingTop=-1;spacingLeft=3;spacingRight=3;rotatable=0;labelPosition=right;points=[];portConstraint=eastwest;" vertex="1" parent="xgsYxusqr2s52Orevr7c-11">
          <mxGeometry y="100" width="120" height="8" as="geometry" />
        </mxCell>
        <mxCell id="xgsYxusqr2s52Orevr7c-17" value="+AddProfessor():void&lt;div&gt;+RemProfessor():void&lt;/div&gt;" style="whiteSpace=wrap;html=1;" vertex="1" parent="xgsYxusqr2s52Orevr7c-11">
          <mxGeometry y="108" width="120" height="32" as="geometry" />
        </mxCell>
        <mxCell id="xgsYxusqr2s52Orevr7c-18" value="system" style="swimlane;fontStyle=2;align=center;verticalAlign=top;childLayout=stackLayout;horizontal=1;startSize=26;horizontalStack=0;resizeParent=1;resizeLast=0;collapsible=1;marginBottom=0;rounded=0;shadow=0;strokeWidth=1;" vertex="1" parent="WIyWlLk6GJQsqaUBKTNV-1">
          <mxGeometry x="334" y="150" width="160" height="180" as="geometry">
            <mxRectangle x="230" y="140" width="160" height="26" as="alternateBounds" />
          </mxGeometry>
        </mxCell>
        <mxCell id="xgsYxusqr2s52Orevr7c-20" value="-all professors:list" style="text;align=left;verticalAlign=top;spacingLeft=4;spacingRight=4;overflow=hidden;rotatable=0;points=[[0,0.5],[1,0.5]];portConstraint=eastwest;rounded=0;shadow=0;html=0;" vertex="1" parent="xgsYxusqr2s52Orevr7c-18">
          <mxGeometry y="26" width="160" height="26" as="geometry" />
        </mxCell>
        <mxCell id="xgsYxusqr2s52Orevr7c-24" value="" style="line;html=1;strokeWidth=1;align=left;verticalAlign=middle;spacingTop=-1;spacingLeft=3;spacingRight=3;rotatable=0;labelPosition=right;points=[];portConstraint=eastwest;" vertex="1" parent="xgsYxusqr2s52Orevr7c-18">
          <mxGeometry y="52" width="160" height="8" as="geometry" />
        </mxCell>
        <mxCell id="xgsYxusqr2s52Orevr7c-25" value="+AddProf():void&#xa;+RemProf():void&#xa;+distribute():void" style="text;align=left;verticalAlign=top;spacingLeft=4;spacingRight=4;overflow=hidden;rotatable=0;points=[[0,0.5],[1,0.5]];portConstraint=eastwest;" vertex="1" parent="xgsYxusqr2s52Orevr7c-18">
          <mxGeometry y="60" width="160" height="94" as="geometry" />
        </mxCell>
        <mxCell id="xgsYxusqr2s52Orevr7c-26" value="admin" style="swimlane;fontStyle=2;align=center;verticalAlign=top;childLayout=stackLayout;horizontal=1;startSize=26;horizontalStack=0;resizeParent=1;resizeLast=0;collapsible=1;marginBottom=0;rounded=0;shadow=0;strokeWidth=1;" vertex="1" parent="WIyWlLk6GJQsqaUBKTNV-1">
          <mxGeometry x="590" y="467" width="160" height="203" as="geometry">
            <mxRectangle x="230" y="140" width="160" height="26" as="alternateBounds" />
          </mxGeometry>
        </mxCell>
        <mxCell id="xgsYxusqr2s52Orevr7c-27" value="-all prof: list" style="text;align=left;verticalAlign=top;spacingLeft=4;spacingRight=4;overflow=hidden;rotatable=0;points=[[0,0.5],[1,0.5]];portConstraint=eastwest;" vertex="1" parent="xgsYxusqr2s52Orevr7c-26">
          <mxGeometry y="26" width="160" height="26" as="geometry" />
        </mxCell>
        <mxCell id="xgsYxusqr2s52Orevr7c-28" value="-all courses: list" style="text;align=left;verticalAlign=top;spacingLeft=4;spacingRight=4;overflow=hidden;rotatable=0;points=[[0,0.5],[1,0.5]];portConstraint=eastwest;rounded=0;shadow=0;html=0;" vertex="1" parent="xgsYxusqr2s52Orevr7c-26">
          <mxGeometry y="52" width="160" height="26" as="geometry" />
        </mxCell>
        <mxCell id="xgsYxusqr2s52Orevr7c-29" value="-all users:list" style="text;align=left;verticalAlign=top;spacingLeft=4;spacingRight=4;overflow=hidden;rotatable=0;points=[[0,0.5],[1,0.5]];portConstraint=eastwest;rounded=0;shadow=0;html=0;" vertex="1" parent="xgsYxusqr2s52Orevr7c-26">
          <mxGeometry y="78" width="160" height="22" as="geometry" />
        </mxCell>
        <mxCell id="xgsYxusqr2s52Orevr7c-32" value="" style="line;html=1;strokeWidth=1;align=left;verticalAlign=middle;spacingTop=-1;spacingLeft=3;spacingRight=3;rotatable=0;labelPosition=right;points=[];portConstraint=eastwest;" vertex="1" parent="xgsYxusqr2s52Orevr7c-26">
          <mxGeometry y="100" width="160" height="8" as="geometry" />
        </mxCell>
        <mxCell id="xgsYxusqr2s52Orevr7c-33" value="+AddProf():void&#xa;+RemProf():void&#xa;+AddCourse():void&#xa;+RemCourse():void&#xa;+RemUser():void&#xa;" style="text;align=left;verticalAlign=top;spacingLeft=4;spacingRight=4;overflow=hidden;rotatable=0;points=[[0,0.5],[1,0.5]];portConstraint=eastwest;" vertex="1" parent="xgsYxusqr2s52Orevr7c-26">
          <mxGeometry y="108" width="160" height="82" as="geometry" />
        </mxCell>
        <mxCell id="xgsYxusqr2s52Orevr7c-34" value="user" style="swimlane;fontStyle=2;align=center;verticalAlign=top;childLayout=stackLayout;horizontal=1;startSize=26;horizontalStack=0;resizeParent=1;resizeLast=0;collapsible=1;marginBottom=0;rounded=0;shadow=0;strokeWidth=1;" vertex="1" parent="WIyWlLk6GJQsqaUBKTNV-1">
          <mxGeometry x="550" y="100" width="160" height="264" as="geometry">
            <mxRectangle x="230" y="140" width="160" height="26" as="alternateBounds" />
          </mxGeometry>
        </mxCell>
        <mxCell id="xgsYxusqr2s52Orevr7c-35" value="-Name:strig" style="text;align=left;verticalAlign=top;spacingLeft=4;spacingRight=4;overflow=hidden;rotatable=0;points=[[0,0.5],[1,0.5]];portConstraint=eastwest;" vertex="1" parent="xgsYxusqr2s52Orevr7c-34">
          <mxGeometry y="26" width="160" height="26" as="geometry" />
        </mxCell>
        <mxCell id="xgsYxusqr2s52Orevr7c-36" value="-ID:int" style="text;align=left;verticalAlign=top;spacingLeft=4;spacingRight=4;overflow=hidden;rotatable=0;points=[[0,0.5],[1,0.5]];portConstraint=eastwest;rounded=0;shadow=0;html=0;" vertex="1" parent="xgsYxusqr2s52Orevr7c-34">
          <mxGeometry y="52" width="160" height="26" as="geometry" />
        </mxCell>
        <mxCell id="xgsYxusqr2s52Orevr7c-37" value="-role:string" style="text;align=left;verticalAlign=top;spacingLeft=4;spacingRight=4;overflow=hidden;rotatable=0;points=[[0,0.5],[1,0.5]];portConstraint=eastwest;rounded=0;shadow=0;html=0;" vertex="1" parent="xgsYxusqr2s52Orevr7c-34">
          <mxGeometry y="78" width="160" height="22" as="geometry" />
        </mxCell>
        <mxCell id="xgsYxusqr2s52Orevr7c-40" value="" style="line;html=1;strokeWidth=1;align=left;verticalAlign=middle;spacingTop=-1;spacingLeft=3;spacingRight=3;rotatable=0;labelPosition=right;points=[];portConstraint=eastwest;" vertex="1" parent="xgsYxusqr2s52Orevr7c-34">
          <mxGeometry y="100" width="160" height="8" as="geometry" />
        </mxCell>
        <mxCell id="xgsYxusqr2s52Orevr7c-41" value="+watch schedule():list" style="text;align=left;verticalAlign=top;spacingLeft=4;spacingRight=4;overflow=hidden;rotatable=0;points=[[0,0.5],[1,0.5]];portConstraint=eastwest;" vertex="1" parent="xgsYxusqr2s52Orevr7c-34">
          <mxGeometry y="108" width="160" height="42" as="geometry" />
        </mxCell>
        <mxCell id="xgsYxusqr2s52Orevr7c-42" value="schedule" style="swimlane;fontStyle=2;align=center;verticalAlign=top;childLayout=stackLayout;horizontal=1;startSize=26;horizontalStack=0;resizeParent=1;resizeLast=0;collapsible=1;marginBottom=0;rounded=0;shadow=0;strokeWidth=1;" vertex="1" parent="WIyWlLk6GJQsqaUBKTNV-1">
          <mxGeometry x="334" y="420" width="160" height="264" as="geometry">
            <mxRectangle x="230" y="140" width="160" height="26" as="alternateBounds" />
          </mxGeometry>
        </mxCell>
        <mxCell id="xgsYxusqr2s52Orevr7c-43" value="-scheduleList: list" style="text;align=left;verticalAlign=top;spacingLeft=4;spacingRight=4;overflow=hidden;rotatable=0;points=[[0,0.5],[1,0.5]];portConstraint=eastwest;" vertex="1" parent="xgsYxusqr2s52Orevr7c-42">
          <mxGeometry y="26" width="160" height="26" as="geometry" />
        </mxCell>
        <mxCell id="xgsYxusqr2s52Orevr7c-48" value="" style="line;html=1;strokeWidth=1;align=left;verticalAlign=middle;spacingTop=-1;spacingLeft=3;spacingRight=3;rotatable=0;labelPosition=right;points=[];portConstraint=eastwest;" vertex="1" parent="xgsYxusqr2s52Orevr7c-42">
          <mxGeometry y="52" width="160" height="8" as="geometry" />
        </mxCell>
        <mxCell id="xgsYxusqr2s52Orevr7c-49" value="+AddLesson(): void&#xa;+RemLesson(): void" style="text;align=left;verticalAlign=top;spacingLeft=4;spacingRight=4;overflow=hidden;rotatable=0;points=[[0,0.5],[1,0.5]];portConstraint=eastwest;" vertex="1" parent="xgsYxusqr2s52Orevr7c-42">
          <mxGeometry y="60" width="160" height="42" as="geometry" />
        </mxCell>
        <mxCell id="xgsYxusqr2s52Orevr7c-56" value="" style="endArrow=classic;html=1;rounded=0;exitX=0.5;exitY=0;exitDx=0;exitDy=0;" edge="1" parent="WIyWlLk6GJQsqaUBKTNV-1" source="xgsYxusqr2s52Orevr7c-18" target="zkfFHV4jXpPFQw0GAbJ--0">
          <mxGeometry width="50" height="50" relative="1" as="geometry">
            <mxPoint x="400" y="460" as="sourcePoint" />
            <mxPoint x="450" y="410" as="targetPoint" />
          </mxGeometry>
        </mxCell>
        <mxCell id="xgsYxusqr2s52Orevr7c-57" value="" style="endArrow=classic;html=1;rounded=0;entryX=0.5;entryY=0;entryDx=0;entryDy=0;" edge="1" parent="WIyWlLk6GJQsqaUBKTNV-1" source="xgsYxusqr2s52Orevr7c-18" target="xgsYxusqr2s52Orevr7c-42">
          <mxGeometry width="50" height="50" relative="1" as="geometry">
            <mxPoint x="400" y="460" as="sourcePoint" />
            <mxPoint x="450" y="410" as="targetPoint" />
          </mxGeometry>
        </mxCell>
        <mxCell id="xgsYxusqr2s52Orevr7c-58" value="" style="endArrow=classic;html=1;rounded=0;" edge="1" parent="WIyWlLk6GJQsqaUBKTNV-1" source="xgsYxusqr2s52Orevr7c-34" target="xgsYxusqr2s52Orevr7c-42">
          <mxGeometry width="50" height="50" relative="1" as="geometry">
            <mxPoint x="400" y="460" as="sourcePoint" />
            <mxPoint x="450" y="410" as="targetPoint" />
          </mxGeometry>
        </mxCell>
        <mxCell id="xgsYxusqr2s52Orevr7c-59" value="" style="endArrow=classic;html=1;rounded=0;exitX=0.431;exitY=0;exitDx=0;exitDy=0;exitPerimeter=0;" edge="1" parent="WIyWlLk6GJQsqaUBKTNV-1" source="xgsYxusqr2s52Orevr7c-26" target="xgsYxusqr2s52Orevr7c-34">
          <mxGeometry width="50" height="50" relative="1" as="geometry">
            <mxPoint x="400" y="460" as="sourcePoint" />
            <mxPoint x="450" y="410" as="targetPoint" />
          </mxGeometry>
        </mxCell>
        <mxCell id="xgsYxusqr2s52Orevr7c-60" value="" style="endArrow=classic;html=1;rounded=0;exitX=0.5;exitY=0;exitDx=0;exitDy=0;" edge="1" parent="WIyWlLk6GJQsqaUBKTNV-1" source="xgsYxusqr2s52Orevr7c-26" target="zkfFHV4jXpPFQw0GAbJ--0">
          <mxGeometry width="50" height="50" relative="1" as="geometry">
            <mxPoint x="400" y="460" as="sourcePoint" />
            <mxPoint x="450" y="410" as="targetPoint" />
          </mxGeometry>
        </mxCell>
        <mxCell id="xgsYxusqr2s52Orevr7c-61" value="" style="endArrow=classic;html=1;rounded=0;entryX=0.5;entryY=0;entryDx=0;entryDy=0;" edge="1" parent="WIyWlLk6GJQsqaUBKTNV-1" source="xgsYxusqr2s52Orevr7c-18" target="xgsYxusqr2s52Orevr7c-11">
          <mxGeometry width="50" height="50" relative="1" as="geometry">
            <mxPoint x="200" y="230" as="sourcePoint" />
            <mxPoint x="450" y="410" as="targetPoint" />
          </mxGeometry>
        </mxCell>
        <mxCell id="xgsYxusqr2s52Orevr7c-63" value="" style="endArrow=classic;html=1;rounded=0;entryX=0.575;entryY=-0.015;entryDx=0;entryDy=0;entryPerimeter=0;" edge="1" parent="WIyWlLk6GJQsqaUBKTNV-1" source="xgsYxusqr2s52Orevr7c-11" target="zkfFHV4jXpPFQw0GAbJ--0">
          <mxGeometry width="50" height="50" relative="1" as="geometry">
            <mxPoint x="400" y="460" as="sourcePoint" />
            <mxPoint x="450" y="410" as="targetPoint" />
          </mxGeometry>
        </mxCell>
      </root>
    </mxGraphModel>
  </diagram>
</mxfile>
